<svg xmlns="http://www.w3.org/2000/svg" xmlns:xlink="http://www.w3.org/1999/xlink" id="Layer_1" x="0px" y="0px" viewBox="0 0 432 140.6" xml:space="preserve"><g>	<g>		<linearGradient id="SVGID_1_" gradientUnits="userSpaceOnUse" x1="388.7443" y1="14.4451" x2="388.7443" y2="88.3245">			<stop offset="0" style="stop-color:#D60015"></stop>			<stop offset="0.2269" style="stop-color:#CD0015"></stop>			<stop offset="0.5967" style="stop-color:#B50014"></stop>			<stop offset="1" style="stop-color:#930012"></stop>		</linearGradient>		<path fill="url(#SVGID_1_)" d="M372.5,14.4h-1.7c-7,0-12.6,0.2-18.1,4.6c-7.4,6.1-7.2,18.6-7.2,25v13.3c0,6.4-0.8,20,5.4,24.7   c6.7,5.2,12.8,6.2,20.9,6.2h31.4c8.7,0,16.7-1.5,21.9-5.5c5.8-4.6,6.7-13.5,6.8-20.9h-23v0.7c0,3.1-0.6,5.6-3,7.4   c-1.7,1.3-4.6,2.1-7.6,2.1h-20.8c-2.1,0-7.1-1.1-8.6-2.8c-2.2-2.5-2.1-5.2-2.1-8.6v-19c0-4,0.4-7.4,3.8-9.5   c1.9-1.3,4.9-1.5,7.1-1.5c0.6,0,1.2,0,1.7,0h18.9c3.2,0,5.8,0.1,7.9,2c2.1,1.8,2.8,4,2.9,6.7H432c-0.2-6.1-1.3-14.4-8.4-19.7   c-6.8-5-13.1-5.3-21.7-5.3H372.5z"></path>					<linearGradient id="SVGID_00000154423294448815458410000017786442239409960079_" gradientUnits="userSpaceOnUse" x1="293.465" y1="14.6199" x2="293.465" y2="88.4993">			<stop offset="0" style="stop-color:#D60015"></stop>			<stop offset="0.2269" style="stop-color:#CD0015"></stop>			<stop offset="0.5967" style="stop-color:#B50014"></stop>			<stop offset="1" style="stop-color:#930012"></stop>		</linearGradient>		<path fill="url(#SVGID_00000154423294448815458410000017786442239409960079_)" d="M272.3,69.5c-2.1-2.5-2.1-5.2-2.1-8.6v-19   c0-4,0.4-7.4,3.8-9.5c1.9-1.3,4.9-1.5,7.1-1.5c0.7,0,1.2,0,1.7,0h21.4c3.2,0,5.8,0.1,7.9,2c2.2,1.9,2.9,4.1,2.9,7v22.9   c0,3.1-0.6,5.6-3,7.4c-1.7,1.3-4.6,2.1-7.6,2.1h-23.3C278.8,72.3,273.8,71.2,272.3,69.5 M275.9,14.6h-1.7c-7,0-12.6,0.2-18.1,4.6   c-7.4,6.1-7.2,18.6-7.2,25v13.3c0,6.4-0.8,20,5.4,24.7c6.7,5.2,12.8,6.2,20.9,6.2h33.9c8.7,0,16.8-1.5,21.9-5.5   c7.2-5.6,6.8-18,6.8-25.7v-13c0-5.5,0.8-17.6-8.4-24.3c-6.8-5-13.1-5.3-21.7-5.3H275.9z"></path>					<linearGradient id="SVGID_00000102508058328830019090000004118088401482281646_" gradientUnits="userSpaceOnUse" x1="208.9634" y1="14.4451" x2="208.9634" y2="88.3245">			<stop offset="0" style="stop-color:#D60015"></stop>			<stop offset="0.2269" style="stop-color:#CD0015"></stop>			<stop offset="0.5967" style="stop-color:#B50014"></stop>			<stop offset="1" style="stop-color:#930012"></stop>		</linearGradient>		<path fill="url(#SVGID_00000102508058328830019090000004118088401482281646_)" d="M175.6,14.4v73.9h66.8V72.1h-46.6V14.4H175.6z"></path>	</g></g><g>	<polygon fill="#F1B100" points="73.4,38.1 147,55.9 147,35.7 73.4,0 0,36 0,56.1  "></polygon>	<polygon fill="#D60015" points="0,80.3 0,60.4 73.4,48.4 147,60.2 147,80.5 73.4,92.4  "></polygon>	<polygon fill="#E6001D" points="73.4,48.4 40.6,53.7 54,89.2 73.4,92.4  "></polygon>	<polygon fill="#2A2A2A" points="0,84.5 0,104.6 73.4,140.6 147,105.1 147,84.7 73.4,102.5  "></polygon>	<polygon fill="#3B3B3B" points="73.4,102.5 57.5,98.6 73.4,140.6  "></polygon></g><linearGradient id="SVGID_00000116932250193842626820000005094225921632697760_" gradientUnits="userSpaceOnUse" x1="73.3735" y1="27.9575" x2="146.9923" y2="27.9575">	<stop offset="0" style="stop-color:#AA7900"></stop>	<stop offset="1" style="stop-color:#F1B100"></stop></linearGradient><polygon fill="url(#SVGID_00000116932250193842626820000005094225921632697760_)" points="147,35.7 73.4,0 73.4,38.1 147,55.9 "></polygon><linearGradient id="SVGID_00000109736213533110642870000003884708198762725262_" gradientUnits="userSpaceOnUse" x1="73.3802" y1="70.357" x2="146.9923" y2="70.357">	<stop offset="0" style="stop-color:#930012"></stop>	<stop offset="1" style="stop-color:#D60015"></stop></linearGradient><polygon fill="url(#SVGID_00000109736213533110642870000003884708198762725262_)" points="147,60.2 73.4,48.4 73.4,92.4 147,80.5  "></polygon><linearGradient id="SVGID_00000124147096705248721520000003741283806089172401_" gradientUnits="userSpaceOnUse" x1="73.3802" y1="112.6906" x2="146.9923" y2="112.6906">	<stop offset="0" style="stop-color:#000000"></stop>	<stop offset="1" style="stop-color:#2A2A2A"></stop></linearGradient><polygon fill="url(#SVGID_00000124147096705248721520000003741283806089172401_)" points="147,84.7 73.4,102.5 73.4,140.6  147,105.1 "></polygon><g>	<path d="M175.6,123.8l2.1-4.7c2,1.3,4.8,2.2,7.5,2.2c2.6,0,3.7-0.7,3.7-1.8c0-3.6-12.8-1-12.8-9.4c0-4,3.3-7.3,10-7.3  c2.9,0,6,0.7,8.2,2l-2,4.7c-2.2-1.2-4.3-1.7-6.3-1.7c-2.7,0-3.6,0.9-3.6,2c0,3.5,12.8,0.9,12.8,9.2c0,3.9-3.3,7.3-10,7.3  C181.4,126.3,177.7,125.3,175.6,123.8z"></path>	<path d="M205.4,114.5c0-6.8,5.3-11.7,12.5-11.7s12.5,5,12.5,11.7c0,6.8-5.3,11.7-12.5,11.7S205.4,121.3,205.4,114.5z M224,114.5  c0-3.9-2.7-6.5-6.1-6.5c-3.4,0-6.1,2.5-6.1,6.5c0,3.9,2.7,6.5,6.1,6.5C221.4,121,224,118.4,224,114.5z"></path>	<path d="M248.9,108.2v5h10v4.9h-10v7.7h-6.4v-22.6h17.7v4.9H248.9z"></path>	<path d="M277.2,108.3h-6.9v-5.1h20.2v5.1h-6.9v17.5h-6.4V108.3z"></path>	<path d="M337.5,103.2l-7.3,22.6h-6.8l-4.3-13.7l-4.5,13.7h-6.8l-7.3-22.6h6.6l4.5,14.4l4.8-14.4h5.9l4.5,14.5l4.7-14.5H337.5z"></path>	<path d="M362.3,121.4h-9.5l-1.8,4.4h-6.5l10-22.6h6.3l10,22.6h-6.6L362.3,121.4z M360.5,116.7l-2.9-7.2l-2.9,7.2H360.5z"></path>	<path d="M391.1,119.8h-3.5v6h-6.4v-22.6h10.3c6.2,0,10,3.2,10,8.4c0,3.3-1.6,5.8-4.4,7.1l4.9,7.1h-6.8L391.1,119.8z M391.2,108.3  h-3.5v6.6h3.5c2.6,0,4-1.2,4-3.3C395.2,109.5,393.8,108.3,391.2,108.3z"></path>	<path d="M432,120.9v4.9h-18.1v-22.6h17.7v4.9h-11.4v3.8h10v4.8h-10v4.1H432z"></path></g><polygon fill="#F7D000" points="73.4,0 28.6,22 38,46.8 73.4,38.1 "></polygon></svg>